# xmcd
#
# Track frame offsets: 
#        150
#        10775
#        23015
#        33600
#        43387
#        53090
#        66087
#        77330
#        87817
#        100490
#        109927
#        119865
#        131247
#        143655
#        154040
#        165852
#        178462
#        190505
#        200630
#        213540
#
# Disc length: 2999 seconds
#
# Revision: 3
# Processed by: cddbd v1.5.2PL0 Copyright (c) Steve Scherf et al.
# Submitted via: ExactAudioCopyFreeDBPlugin 1.0
#
DISCID=1a0bb514
DTITLE=Various Artist - The Excello Story, 1952-1975
DYEAR=1999
DGENRE=Rhythm and Blues
TTITLE0=The Gladiolas - Little Darlin'
TTITLE1=The Crescendos - Oh Julie
TTITLE2=The Hollyhocks - You for Me
TTITLE3=The Gladiolas - Sweetheart, Please Don't Go
TTITLE4=Lillian Offitt - Miss You So
TTITLE5=Carol Fran - Emmitt Lee
TTITLE6=Lazy Lester - I'm a Lover, Not a Fighter
TTITLE7=Leroy Washington - Wild Cherry
TTITLE8=Guitar Gable and King Karl - This Should Go on Forever
TTITLE9=Lonesome Sundown - Gonna Stick to You Baby
TTITLE10=Lazy Lester - I Hear You Knockin'
TTITLE11=Lightnin' Slim - Rooster Blues
TTITLE12=Arthur Gunter - No Naggin', No Draggin'
TTITLE13=Al Garner - Leavin' Tennessee
TTITLE14=The King Crooners - Now That She's Gone
TTITLE15=Roscoe Shelton - Please Think it Over
TTITLE16=Lattimore Brown - Somebody's Gonna Miss Me
TTITLE17=Warren Storm - Mama Mama Mama (Look What Your Little Boy's Do
TTITLE17=ne)
TTITLE18=Warren Storm - Prisoner's Song
TTITLE19=Slim Harpo - Rainin' in My Heart
EXTD=
EXTT0=
EXTT1=
EXTT2=
EXTT3=
EXTT4=
EXTT5=
EXTT6=
EXTT7=
EXTT8=
EXTT9=
EXTT10=
EXTT11=
EXTT12=
EXTT13=
EXTT14=
EXTT15=
EXTT16=
EXTT17=
EXTT18=
EXTT19=
PLAYORDER=
